{"accessors" : [{"bufferView" : 0, "byteOffset" : 0, "componentType" : 5123, "count" : 37830, "type" : "SCALAR", "max" : [7640], "min" : [0]}, {"bufferView" : 1, "byteOffset" : 0, "componentType" : 5126, "count" : 7641, "type" : "VEC3", "max" : [96.8413925170898, 208.256088256836, 17.6307792663574], "min" : [-96.9268798828125, 0.511294186115265, -21.7174987792969]}, {"bufferView" : 1, "byteOffset" : 12, "componentType" : 5126, "count" : 7641, "type" : "VEC3", "max" : [0.999942302703857, 0.999990940093994, 0.999888896942139], "min" : [-0.999942302703857, -0.999971628189087, -0.999896287918091]}, {"bufferView" : 1, "byteOffset" : 24, "componentType" : 5126, "count" : 7641, "type" : "VEC2", "max" : [0.997348785400391, -0.00827383995056152], "min" : [0.000940084457397461, -0.999206125736237]}, {"bufferView" : 1, "byteOffset" : 32, "componentType" : 5126, "count" : 7641, "type" : "VEC2", "max" : [0.997348785400391, -0.00827383995056152], "min" : [0.000940084457397461, -0.999206125736237]}, {"bufferView" : 1, "byteOffset" : 40, "componentType" : 5126, "count" : 7641, "type" : "VEC2", "max" : [0.997348785400391, -0.00827383995056152], "min" : [0.000940084457397461, -0.999206125736237]}, {"bufferView" : 1, "byteOffset" : 48, "componentType" : 5126, "count" : 7641, "type" : "VEC2", "max" : [0.997348785400391, -0.00827383995056152], "min" : [0.000940084457397461, -0.999206125736237]}, {"bufferView" : 1, "byteOffset" : 56, "componentType" : 5126, "count" : 7641, "type" : "VEC2", "max" : [0.997348785400391, -0.00827383995056152], "min" : [0.000940084457397461, -0.999206125736237]}, {"bufferView" : 1, "byteOffset" : 64, "componentType" : 5126, "count" : 7641, "type" : "VEC2", "max" : [0.997348785400391, -0.00827383995056152], "min" : [0.000940084457397461, -0.999206125736237]}, {"bufferView" : 1, "byteOffset" : 72, "componentType" : 5126, "count" : 7641, "type" : "VEC2", "max" : [0.997348785400391, -0.00827383995056152], "min" : [0.000940084457397461, -0.999206125736237]}, {"bufferView" : 1, "byteOffset" : 80, "componentType" : 5126, "count" : 7641, "type" : "VEC2", "max" : [0.997348785400391, -0.00827383995056152], "min" : [0.000940084457397461, -0.999206125736237]}, {"bufferView" : 1, "byteOffset" : 88, "componentType" : 5126, "count" : 7641, "type" : "VEC2", "max" : [0.997348785400391, -0.00827383995056152], "min" : [0.000940084457397461, -0.999206125736237]}, {"bufferView" : 1, "byteOffset" : 96, "componentType" : 5126, "count" : 7641, "type" : "VEC2", "max" : [0.997348785400391, -0.00827383995056152], "min" : [0.000940084457397461, -0.999206125736237]}, {"bufferView" : 1, "byteOffset" : 104, "componentType" : 5126, "count" : 7641, "type" : "VEC2", "max" : [0.997348785400391, -0.00827383995056152], "min" : [0.000940084457397461, -0.999206125736237]}, {"bufferView" : 1, "byteOffset" : 112, "componentType" : 5126, "count" : 7641, "type" : "VEC2", "max" : [0.997348785400391, -0.00827383995056152], "min" : [0.000940084457397461, -0.999206125736237]}, {"bufferView" : 1, "byteOffset" : 120, "componentType" : 5126, "count" : 7641, "type" : "VEC2", "max" : [0.997348785400391, -0.00827383995056152], "min" : [0.000940084457397461, -0.999206125736237]}, {"bufferView" : 1, "byteOffset" : 128, "componentType" : 5126, "count" : 7641, "type" : "VEC2", "max" : [0.997348785400391, -0.00827383995056152], "min" : [0.000940084457397461, -0.999206125736237]}, {"bufferView" : 1, "byteOffset" : 136, "componentType" : 5126, "count" : 7641, "type" : "VEC2", "max" : [0.997348785400391, -0.00827383995056152], "min" : [0.000940084457397461, -0.999206125736237]}, {"bufferView" : 1, "byteOffset" : 144, "componentType" : 5126, "count" : 7641, "type" : "VEC2", "max" : [0.997348785400391, -0.00827383995056152], "min" : [0.000940084457397461, -0.999206125736237]}, {"bufferView" : 1, "byteOffset" : 152, "componentType" : 5126, "count" : 7641, "type" : "VEC2", "max" : [0.997348785400391, -0.00827383995056152], "min" : [0.000940084457397461, -0.999206125736237]}, {"bufferView" : 1, "byteOffset" : 160, "componentType" : 5126, "count" : 7641, "type" : "VEC2", "max" : [0.997348785400391, -0.00827383995056152], "min" : [0.000940084457397461, -0.999206125736237]}, {"bufferView" : 1, "byteOffset" : 168, "componentType" : 5126, "count" : 7641, "type" : "VEC2", "max" : [0.997348785400391, -0.00827383995056152], "min" : [0.000940084457397461, -0.999206125736237]}, {"bufferView" : 1, "byteOffset" : 176, "componentType" : 5126, "count" : 7641, "type" : "VEC2", "max" : [0.997348785400391, -0.00827383995056152], "min" : [0.000940084457397461, -0.999206125736237]}], "asset" : {"generator" : "Aspose.3D 20.2.1", "version" : "2.0"}, "buffers" : [{"uri" : "buffer.bin", "byteLength" : 12305668}], "bufferViews" : [{"buffer" : 0, "byteOffset" : 0, "byteLength" : 75660, "target" : 34963}, {"buffer" : 0, "byteOffset" : 75664, "byteLength" : 1405944, "byteStride" : 184, "target" : 34962}, {"buffer" : 0, "byteOffset" : 1481612, "byteLength" : 4838581}, {"buffer" : 0, "byteOffset" : 6320196, "byteLength" : 5985470}], "images" : [{"mimeType" : "image/png", "bufferView" : 2}, {"mimeType" : "image/png", "bufferView" : 3}], "materials" : [{"pbrMetallicRoughness" : {"baseColorFactor" : [1, 1, 1, 1], "baseColorTexture" : {"index" : 1, "texCoord" : 0}, "metallicFactor" : 0, "roughnessFactor" : 0}, "normalTexture" : {"index" : 0, "texCoord" : 0, "scale" : 1}, "emissiveFactor" : [0, 0, 0], "alphaMode" : "OPAQUE", "doubleSided" : false}], "meshes" : [{"primitives" : [{"attributes" : {"POSITION" : 1, "NORMAL" : 2, "TEXCOORD_0" : 3, "TEXCOORD_1" : 4, "TEXCOORD_2" : 5, "TEXCOORD_3" : 6, "TEXCOORD_4" : 7, "TEXCOORD_5" : 8, "TEXCOORD_6" : 9, "TEXCOORD_7" : 10, "TEXCOORD_8" : 11, "TEXCOORD_9" : 12, "TEXCOORD_10" : 13, "TEXCOORD_11" : 14, "TEXCOORD_12" : 15, "TEXCOORD_13" : 16, "TEXCOORD_14" : 17, "TEXCOORD_15" : 18, "TEXCOORD_16" : 19, "TEXCOORD_17" : 20, "TEXCOORD_18" : 21, "TEXCOORD_19" : 22}, "indices" : 0, "material" : 0, "mode" : 4}]}], "nodes" : [{"mesh" : 0, "name" : "Kachujin"}], "samplers" : [{"magFilter" : 9729, "minFilter" : 9729, "wrapS" : 10497, "wrapT" : 10497}, {"magFilter" : 9729, "minFilter" : 9729, "wrapS" : 10497, "wrapT" : 10497}], "scene" : 0, "scenes" : [{"nodes" : [0]}], "textures" : [{"sampler" : 0, "source" : 0}, {"sampler" : 1, "source" : 1}]}